<mxfile host="app.diagrams.net" agent="Mozilla/5.0 (Windows NT 10.0; Win64; x64) AppleWebKit/537.36 (KHTML, like Gecko) Chrome/133.0.0.0 Safari/537.36" version="24.7.7">
  <diagram name="第 1 页" id="to8FGLUkYc88bEBeE6iM">
    <mxGraphModel dx="1434" dy="746" grid="1" gridSize="10" guides="1" tooltips="1" connect="1" arrows="1" fold="1" page="1" pageScale="1" pageWidth="827" pageHeight="1169" math="0" shadow="0">
      <root>
        <mxCell id="0" />
        <mxCell id="1" parent="0" />
        <mxCell id="pIMW0Uo65BX_9P1lAdCi-9" value="" style="shape=umlLifeline;perimeter=lifelinePerimeter;whiteSpace=wrap;html=1;container=1;dropTarget=0;collapsible=0;recursiveResize=0;outlineConnect=0;portConstraint=eastwest;newEdgeStyle={&quot;curved&quot;:0,&quot;rounded&quot;:0};participant=umlActor;" parent="1" vertex="1">
          <mxGeometry x="90" y="130" width="20" height="300" as="geometry" />
        </mxCell>
        <mxCell id="pIMW0Uo65BX_9P1lAdCi-10" value="" style="html=1;points=[[0,0,0,0,5],[0,1,0,0,-5],[1,0,0,0,5],[1,1,0,0,-5]];perimeter=orthogonalPerimeter;outlineConnect=0;targetShapes=umlLifeline;portConstraint=eastwest;newEdgeStyle={&quot;curved&quot;:0,&quot;rounded&quot;:0};" parent="1" vertex="1">
          <mxGeometry x="210" y="130" width="10" height="300" as="geometry" />
        </mxCell>
        <mxCell id="pIMW0Uo65BX_9P1lAdCi-11" value="dispatch 创建临时报告" style="html=1;verticalAlign=bottom;startArrow=oval;endArrow=block;startSize=8;curved=0;rounded=0;entryX=0;entryY=0;entryDx=0;entryDy=5;" parent="1" target="pIMW0Uo65BX_9P1lAdCi-10" edge="1">
          <mxGeometry x="-0.1429" y="15" relative="1" as="geometry">
            <mxPoint x="140" y="135" as="sourcePoint" />
            <mxPoint as="offset" />
          </mxGeometry>
        </mxCell>
        <mxCell id="pIMW0Uo65BX_9P1lAdCi-12" value="&lt;p style=&quot;margin:0px;margin-top:4px;text-align:center;text-decoration:underline;&quot;&gt;&lt;b&gt;Object:params&lt;/b&gt;&lt;/p&gt;&lt;hr size=&quot;1&quot; style=&quot;border-style:solid;&quot;&gt;&lt;p style=&quot;margin:0px;margin-left:8px;&quot;&gt;project_id = value1&lt;br&gt;report_type = value2&lt;br&gt;user_id = value3&lt;/p&gt;" style="verticalAlign=top;align=left;overflow=fill;html=1;whiteSpace=wrap;" parent="1" vertex="1">
          <mxGeometry x="90" y="10" width="140" height="80" as="geometry" />
        </mxCell>
        <mxCell id="pIMW0Uo65BX_9P1lAdCi-14" value="return 获取报告" style="html=1;verticalAlign=bottom;endArrow=open;dashed=1;endSize=8;curved=0;rounded=0;" parent="1" edge="1">
          <mxGeometry y="-10" relative="1" as="geometry">
            <mxPoint x="200" y="270" as="sourcePoint" />
            <mxPoint x="120" y="270" as="targetPoint" />
            <mxPoint as="offset" />
          </mxGeometry>
        </mxCell>
        <mxCell id="pIMW0Uo65BX_9P1lAdCi-16" value="" style="html=1;points=[[0,0,0,0,5],[0,1,0,0,-5],[1,0,0,0,5],[1,1,0,0,-5]];perimeter=orthogonalPerimeter;outlineConnect=0;targetShapes=umlLifeline;portConstraint=eastwest;newEdgeStyle={&quot;curved&quot;:0,&quot;rounded&quot;:0};" parent="1" vertex="1">
          <mxGeometry x="530" y="130" width="10" height="300" as="geometry" />
        </mxCell>
        <mxCell id="pIMW0Uo65BX_9P1lAdCi-17" value="dispatch 保存报告" style="html=1;verticalAlign=bottom;startArrow=oval;endArrow=block;startSize=8;curved=0;rounded=0;entryX=0;entryY=0;entryDx=0;entryDy=5;" parent="1" target="pIMW0Uo65BX_9P1lAdCi-16" edge="1">
          <mxGeometry x="-0.1429" y="15" relative="1" as="geometry">
            <mxPoint x="360" y="135" as="sourcePoint" />
            <mxPoint as="offset" />
          </mxGeometry>
        </mxCell>
        <mxCell id="pIMW0Uo65BX_9P1lAdCi-18" value="&lt;p style=&quot;margin:0px;margin-top:4px;text-align:center;text-decoration:underline;&quot;&gt;&lt;b&gt;Object:params&lt;/b&gt;&lt;/p&gt;&lt;hr size=&quot;1&quot; style=&quot;border-style:solid;&quot;&gt;&lt;p style=&quot;margin:0px;margin-left:8px;&quot;&gt;index = value4&lt;/p&gt;" style="verticalAlign=top;align=left;overflow=fill;html=1;whiteSpace=wrap;" parent="1" vertex="1">
          <mxGeometry x="650" y="350" width="140" height="60" as="geometry" />
        </mxCell>
        <mxCell id="pIMW0Uo65BX_9P1lAdCi-20" value="编辑报告" style="endArrow=open;endSize=12;dashed=1;html=1;rounded=0;" parent="1" edge="1">
          <mxGeometry width="160" relative="1" as="geometry">
            <mxPoint x="130" y="360" as="sourcePoint" />
            <mxPoint x="500" y="360" as="targetPoint" />
          </mxGeometry>
        </mxCell>
        <mxCell id="pIMW0Uo65BX_9P1lAdCi-21" value="获取报告" style="html=1;verticalAlign=bottom;endArrow=open;dashed=1;endSize=8;curved=0;rounded=0;" parent="1" edge="1">
          <mxGeometry relative="1" as="geometry">
            <mxPoint x="490" y="400" as="sourcePoint" />
            <mxPoint x="130" y="400" as="targetPoint" />
          </mxGeometry>
        </mxCell>
        <mxCell id="pIMW0Uo65BX_9P1lAdCi-22" value="将报告名从reportv1-v2-v3转为reportv4" style="whiteSpace=wrap;html=1;" parent="1" vertex="1">
          <mxGeometry x="640" y="90" width="120" height="60" as="geometry" />
        </mxCell>
        <mxCell id="sT2DDZtejXuOlO23xN1f-1" value="" style="shape=image;verticalLabelPosition=bottom;labelBackgroundColor=#ffffff;verticalAlign=top;aspect=fixed;imageAspect=0;image=data:image/svg+xml,PHN2ZyB4bWxuczpjYz0iaHR0cDovL2NyZWF0aXZlY29tbW9ucy5vcmcvbnMjIiB4bWxuczpkYz0iaHR0cDovL3B1cmwub3JnL2RjL2VsZW1lbnRzLzEuMS8iIHhtbG5zOmlua3NjYXBlPSJodHRwOi8vd3d3Lmlua3NjYXBlLm9yZy9uYW1lc3BhY2VzL2lua3NjYXBlIiB4bWxuczpyZGY9Imh0dHA6Ly93d3cudzMub3JnLzE5OTkvMDIvMjItcmRmLXN5bnRheC1ucyMiIHhtbG5zOnNvZGlwb2RpPSJodHRwOi8vc29kaXBvZGkuc291cmNlZm9yZ2UubmV0L0RURC9zb2RpcG9kaS0wLmR0ZCIgeG1sbnM6c3ZnPSJodHRwOi8vd3d3LnczLm9yZy8yMDAwL3N2ZyIgeG1sbnM9Imh0dHA6Ly93d3cudzMub3JnLzIwMDAvc3ZnIiB4bWxuczp4bGluaz0iaHR0cDovL3d3dy53My5vcmcvMTk5OS94bGluayIgdmVyc2lvbj0iMS4xIiBpZD0ic3ZnMTAxMjg5IiBpbmtzY2FwZTp2ZXJzaW9uPSIwLjkyLjMgKDI0MDU1NDYsIDIwMTgtMDMtMTEpIiBzb2RpcG9kaTpkb2NuYW1lPSJtb25nb2RiLnN2ZyIgeD0iMHB4IiB5PSIwcHgiIHZpZXdCb3g9IjAgMCAxMDEuMjggNjQuNDYiIHN0eWxlPSJlbmFibGUtYmFja2dyb3VuZDpuZXcgMCAwIDEwMS4yOCA2NC40NjsiIHhtbDpzcGFjZT0icHJlc2VydmUiPiYjeGE7PHNvZGlwb2RpOm5hbWVkdmlldyBib3JkZXJjb2xvcj0iIzY2NjY2NiIgYm9yZGVyb3BhY2l0eT0iMSIgZml0LW1hcmdpbi1ib3R0b209IjAiIGZpdC1tYXJnaW4tbGVmdD0iMCIgZml0LW1hcmdpbi1yaWdodD0iMCIgZml0LW1hcmdpbi10b3A9IjAiIGdyaWR0b2xlcmFuY2U9IjEwIiBndWlkZXRvbGVyYW5jZT0iMTAiIGlkPSJuYW1lZHZpZXcxMDEyOTEiIGlua3NjYXBlOmN1cnJlbnQtbGF5ZXI9InN2ZzEwMTI4OSIgaW5rc2NhcGU6Y3g9IjY3LjUyMzY1MyIgaW5rc2NhcGU6Y3k9IjQzLjE3NTI0NCIgaW5rc2NhcGU6cGFnZW9wYWNpdHk9IjAiIGlua3NjYXBlOnBhZ2VzaGFkb3c9IjIiIGlua3NjYXBlOndpbmRvdy1oZWlnaHQ9IjEwMTciIGlua3NjYXBlOndpbmRvdy1tYXhpbWl6ZWQ9IjEiIGlua3NjYXBlOndpbmRvdy13aWR0aD0iMTkyMCIgaW5rc2NhcGU6d2luZG93LXg9Ii04IiBpbmtzY2FwZTp3aW5kb3cteT0iLTgiIGlua3NjYXBlOnpvb209IjkuODQ1NDgxNCIgb2JqZWN0dG9sZXJhbmNlPSIxMCIgcGFnZWNvbG9yPSIjZmZmZmZmIiBzaG93Z3JpZD0iZmFsc2UiPiYjeGE7CTwvc29kaXBvZGk6bmFtZWR2aWV3PiYjeGE7PGcgaWQ9ImcxMDEyODciIHRyYW5zZm9ybT0idHJhbnNsYXRlKC0wLjY0NTM3OTIxLC0wLjk0MzY1ODU5KSI+JiN4YTsJPHRpdGxlIGlkPSJ0aXRsZTEwMTIxNyI+UGFnZS0xPC90aXRsZT4mI3hhOwk8ZyBpZD0iZ3JvdXAzOTM5LTEiIHRyYW5zZm9ybT0idHJhbnNsYXRlKDAuNTc1NTk0LC0wLjU4MDQ2NikiPiYjeGE7CQk8dGl0bGUgaWQ9InRpdGxlMTAxMjE5Ij5Nb25nb0RCPC90aXRsZT4mI3hhOwkJPGcgaWQ9Imdyb3VwMzk0MC0yIj4mI3hhOwkJCTx0aXRsZSBpZD0idGl0bGUxMDEyMjEiPkxheWVyIDE8L3RpdGxlPiYjeGE7CQkJPGcgaWQ9Imdyb3VwMzk0MS0zIj4mI3hhOwkJCQk8dGl0bGUgaWQ9InRpdGxlMTAxMjIzIj5zdmdfMTwvdGl0bGU+JiN4YTsJCQkJPGcgaWQ9Imdyb3VwMzk0Mi00IiB0cmFuc2Zvcm09InRyYW5zbGF0ZSgzOS4zOTksLTIwLjUxMTUpIj4mI3hhOwkJCQkJPHRpdGxlIGlkPSJ0aXRsZTEwMTIyNSI+Zzg2MjwvdGl0bGU+JiN4YTsJCQkJCTxnIGlkPSJzaGFwZTM5NDMtNSIgdHJhbnNmb3JtPSJ0cmFuc2xhdGUoOS43MDgzNywtNS44MDEwNykiPiYjeGE7CQkJCQkJPHRpdGxlIGlkPSJ0aXRsZTEwMTIyNyI+cGF0aDI8L3RpdGxlPiYjeGE7CQkJCQkJPHBhdGggaWQ9InBhdGgxMDEyMjkiIGlua3NjYXBlOmNvbm5lY3Rvci1jdXJ2YXR1cmU9IjAiIHN0eWxlPSJmaWxsOiM1OTk2MzY7IiBkPSJNMC4xNCwyNy45NmMwLjM0LDAuNjIsMC43OSwxLjYsMS4xOCwyLjIgICAgICAgIGMwLjI2LDAuNDEsMC41NSwwLjc3LDAuODksMS4xYzAuOTgsMC45OSwxLjkxLDIuMDIsMi43NSwzLjEyYzEuOTksMi42MSwzLjMzLDUuNTEsNC4yOSw4LjY1YzAuNTgsMS45MiwwLjg5LDMuODksMC45MSw1Ljg4ICAgICAgICBjMC4xLDUuOTQtMS45NCwxMS4wNS02LjA2LDE1LjI5Yy0wLjY3LDAuNjctMS4zOSwxLjI5LTIuMTYsMS44NWMtMC40MSwwLTAuNi0wLjMyLTAuNzctMC42Yy0wLjMxLTAuNTMtMC41LTEuMTMtMC41OS0xLjczICAgICAgICBjLTAuMTUtMC43Mi0wLjI0LTEuNDQtMC4yLTIuMThjMC0wLjEyLDAtMC4yMiwwLTAuMzRDMC4zNiw2MS4xMywwLDI4LjEyLDAuMTQsMjcuOTZ6Ii8+JiN4YTsJCQkJCTwvZz4mI3hhOwkJCQkJPGcgaWQ9InNoYXBlMzk0NC03IiB0cmFuc2Zvcm09InRyYW5zbGF0ZSgwLC01LjM5MzU3KSI+JiN4YTsJCQkJCQk8dGl0bGUgaWQ9InRpdGxlMTAxMjMyIj5wYXRoODwvdGl0bGU+JiN4YTsJCQkJCQk8cGF0aCBpZD0icGF0aDEwMTIzNCIgaW5rc2NhcGU6Y29ubmVjdG9yLWN1cnZhdHVyZT0iMCIgc3R5bGU9ImZpbGw6IzZDQUM0ODsiIGQ9Ik05Ljg1LDI3LjQ4Yy0wLjA1LTAuMS0wLjA5LTAuMDMtMC4xNCwwLjAyICAgICAgICBjMC4wMiwwLjQ4LTAuMTUsMC45MS0wLjQxLDEuMzJjLTAuMjksMC40MS0wLjY3LDAuNzItMS4wNSwxLjA1Yy0yLjE0LDEuODUtMy44Miw0LjA4LTUuMTYsNi41NyAgICAgICAgYy0xLjc3LDMuMzYtMi43MSw2Ljk1LTIuOTcsMTAuNzRDMCw0OC41NSwwLjU1LDUzLjM2LDAuOTgsNTQuNzZjMS4xOCwzLjY5LDMuMjksNi43OCw2LjAyLDkuNDYgICAgICAgIGMwLjY3LDAuNjUsMS4zOSwxLjI1LDIuMTMsMS44M2MwLjIyLDAsMC4yNC0wLjIsMC4yOS0wLjM0YzAuMS0wLjMxLDAuMTctMC42MiwwLjIyLTAuOTNjMC4yMS0xLjIsMC4zMy0yLjQsMC40OC0zLjYgICAgICAgIEMxMC4xMiw2MS4wNCw5LjkyLDI3LjYsOS44NSwyNy40OHoiLz4mI3hhOwkJCQkJPC9nPiYjeGE7CQkJCQk8ZyBpZD0ic2hhcGUzOTQ1LTkiIHRyYW5zZm9ybT0idHJhbnNsYXRlKDkuMTMzMDcpIj4mI3hhOwkJCQkJCTx0aXRsZSBpZD0idGl0bGUxMDEyMzciPnBhdGgxMDwvdGl0bGU+JiN4YTsJCQkJCQk8cGF0aCBpZD0icGF0aDEwMTIzOSIgaW5rc2NhcGU6Y29ubmVjdG9yLWN1cnZhdHVyZT0iMCIgc3R5bGU9ImZpbGw6I0MyQkZCRjsiIGQ9Ik0xLjg5LDYxLjcxYzAuMDUtMC41NSwwLjMyLTEuMDEsMC42LTEuNDcgICAgICAgIGMtMC4yOC0wLjEyLTAuNS0wLjM2LTAuNjctMC42MmMtMC4xNC0wLjI0LTAuMjYtMC41My0wLjM2LTAuNzljLTAuMzMtMS4wMS0wLjQxLTIuMDYtMC41LTMuMDlsMCwwYzAtMC4xLDAtMC4yMiwwLTAuMzFsMCwwICAgICAgICBjMC0wLjEsMC0wLjIyLDAtMC4zMmMtMC4xMiwwLjEtMC4xNCwwLjkyLTAuMTQsMS4wNGMtMC4wOCwxLjEtMC4yMiwyLjE4LTAuNDQsMy4yM0MwLjMxLDU5LjgxLDAuMjYsNjAuMjQsMCw2MC42MyAgICAgICAgYzAsMC4wNSwwLDAuMDksMC4wMiwwLjE3YzAuNDQsMS4yNywwLjU2LDIuNTYsMC42MywzLjg4YzAsMC4xNywwLDAuMzEsMCwwLjQ4YzAsMC41Ny0wLjAzLDAuNDUsMC40NSwwLjY1ICAgICAgICBjMC4xOSwwLjA3LDAuNDEsMC4wOSwwLjYsMC4yNGMwLjE1LDAsMC4xNy0wLjEyLDAuMTctMC4yMkMxLjg1LDY1LjU3LDEuOCw2NS4zLDEuOCw2NS4wNGMwLTAuNzQtMC4wMy0xLjQ2LDAtMi4yMSAgICAgICAgQzEuNzcsNjIuNDUsMS44NSw2Mi4wNywxLjg5LDYxLjcxeiIvPiYjeGE7CQkJCQk8L2c+JiN4YTsJCQkJPC9nPiYjeGE7CQkJCTxnIGlkPSJncm91cDM5NDYtMTEiPiYjeGE7CQkJCQk8dGl0bGUgaWQ9InRpdGxlMTAxMjQzIj5nODgwPC90aXRsZT4mI3hhOwkJCQkJPGcgaWQ9InNoYXBlMzk0Ny0xMiIgdHJhbnNmb3JtPSJ0cmFuc2xhdGUoMCwtNi4xMTU1NikiPiYjeGE7CQkJCQkJPHRpdGxlIGlkPSJ0aXRsZTEwMTI0NSI+cGF0aDQ8L3RpdGxlPiYjeGE7CQkJCQkJPHBhdGggaWQ9InBhdGgxMDEyNDciIGlua3NjYXBlOmNvbm5lY3Rvci1jdXJ2YXR1cmU9IjAiIHN0eWxlPSJmaWxsOiM0NzQ3NEE7IiBkPSJNMy44NSw2MS40N2MwLDAuODgsMCwxLjc2LDAsMi42MiAgICAgICAgYzAsMC4xMSwwLDAuMjEsMC4wMiwwLjMxYzAuMDMsMC4zMiwwLjIyLDAuNTEsMC41MiwwLjU5YzAuMjYsMC4wNywwLjUzLDAuMTIsMC43OSwwLjE2YzAuMTYsMC4wMSwwLjIxLDAuMDgsMC4yMywwLjI0ICAgICAgICBjMC4wMSwwLjU5LTAuMDQsMC42Ni0wLjYxLDAuNjJjLTEuMzMtMC4wNy0yLjY2LTAuMDktMy45OSwwYy0wLjA1LDAtMC4xLDAtMC4xNCwwYy0wLjQxLDAuMDItMC40NS0wLjAyLTAuNDUtMC40MyAgICAgICAgYzAtMC4wNywwLjAyLTAuMTYsMC4wMi0wLjIzYzAtMC4xMywwLjA5LTAuMTksMC4yMS0wLjE5YzAuMjgtMC4wMywwLjUzLTAuMSwwLjc5LTAuMTVjMC4zNy0wLjA5LDAuNTctMC4zMSwwLjYxLTAuNjcgICAgICAgIGMwLjA1LTAuNCwwLjA1LTAuODIsMC4wNS0xLjIxYzAuMDUtMS41NCwwLjAzLTMuMSwwLjAyLTQuNjNjMC0wLjMtMC4xMi0wLjUyLTAuMzgtMC42NmMtMC4zMS0wLjE3LTAuNjQtMC4zMS0wLjk5LTAuNDIgICAgICAgIGMtMC4xLTAuMDMtMC4yLTAuMDUtMC4yOS0wLjFDMC4wMiw1Ny4yLDAsNTYuOTgsMC4yNCw1Ni44NGMwLjA5LTAuMDUsMC4xOS0wLjA5LDAuMy0wLjExYzEuMDUtMC4xNSwyLjA3LTAuNDEsMy4wNy0wLjc3ICAgICAgICBjMC4yMS0wLjA3LDAuMjYtMC4wNiwwLjI4LDAuMTVjMC4wMSwwLjE0LDAsMC4yOC0wLjAyLDAuNGMtMC4wMywwLjIyLTAuMDMsMC40NS0wLjAzLDAuNjZjMCwwLjA4LDAuMDEsMC4xNywwLjEsMC4yMiAgICAgICAgYzAuMDksMC4wNSwwLjE3LDAsMC4yNC0wLjA1YzAuMzYtMC4yOCwwLjczLTAuNTQsMS4xMi0wLjc2YzAuNTctMC4zMSwxLjE4LTAuNTksMS44My0wLjY4YzAuOC0wLjEsMS40OSwwLjExLDIuMSwwLjYzICAgICAgICBjMC4yNSwwLjIyLDAuNDYsMC40OCwwLjY1LDAuNzZjMC4xNywwLjI0LDAuMTksMC4yNiwwLjQyLDAuMDhjMC42NS0wLjQ4LDEuMzQtMC45MSwyLjA5LTEuMjJjMC43Ny0wLjMzLDEuNTctMC4zOCwyLjM2LTAuMTEgICAgICAgIGMwLjgyLDAuMywxLjM3LDAuODcsMS43LDEuNjRjMC4yNywwLjYzLDAuMzksMS4yOCwwLjM5LDEuOTRjMCwxLjAyLDAsMi4wNCwwLDMuMDdjMCwwLjUyLDAsMS4wNCwwLDEuNTYgICAgICAgIGMwLDAuMzEsMC4xNCwwLjUyLDAuNDQsMC42NmMwLjMyLDAuMTMsMC42OSwwLjE5LDEuMDMsMC4yNWMwLjIzLDAuMDYsMC4yMywwLjA2LDAuMjMsMC4yOGMtMC4wNCwwLjU3LTAuMDksMC42MS0wLjY0LDAuNTcgICAgICAgIGMtMS4zOC0wLjA5LTIuNzgtMC4wNy00LjE3LDBjLTAuMjcsMC4wMi0wLjI3LDAuMDItMC4yOS0wLjI2YzAtMC4wMywwLTAuMDUsMC0wLjA4Yy0wLjAyLTAuNDctMC4wMi0wLjQ3LDAuNDMtMC41NyAgICAgICAgYzAuMTYtMC4wNCwwLjMtMC4wNywwLjQ1LTAuMTNjMC4zNS0wLjEsMC41Mi0wLjMyLDAuNTQtMC42N2MwLjAxLTAuNDMsMC4wMy0wLjg2LDAuMDUtMS4yOWMwLTEuMTMsMC4wMy0yLjI3LTAuMDQtMy4zOSAgICAgICAgYy0wLjAxLTAuMjktMC4wNi0wLjU5LTAuMTktMC44OGMtMC40My0xLjA2LTEuMzgtMS40NC0yLjI5LTEuMzNjLTAuNjksMC4wNy0xLjMsMC4zNC0xLjg3LDAuNzQgICAgICAgIGMtMC4xMiwwLjA5LTAuMjEsMC4xOS0wLjE5LDAuMzZjMC4xNiwxLjExLDAuMDUsMi4yMSwwLjA3LDMuMzJjMC4wMiwwLjc5LDAsMS42MSwwLDIuNGMwLDAuNDMsMC4xNywwLjY0LDAuNTksMC43NCAgICAgICAgYzAuMjYsMC4wNywwLjUyLDAuMTMsMC43OSwwLjE4YzAuMTIsMC4wMSwwLjE5LDAuMDcsMC4xOSwwLjJjMCwwLjA2LDAsMC4xMSwwLDAuMTRjLTAuMDIsMC40OS0wLjA1LDAuNTItMC41MywwLjUgICAgICAgIGMtMS4zOS0wLjA3LTIuNzctMC4wNS00LjEzLDBjLTAuNDcsMC4wMi0wLjUyLTAuMDMtMC40OS0wLjUxYzAuMDItMC4yOCwwLjA2LTAuMywwLjMxLTAuMzVjMC4xOS0wLjAzLDAuMzgtMC4wNywwLjU3LTAuMSAgICAgICAgYzAuNTItMC4xMSwwLjctMC4zLDAuNzMtMC44M2MwLjAyLTAuMzgsMC4wNS0wLjc4LDAuMDUtMS4xNmMwLjAyLTEuMTYsMC4wNS0yLjMyLTAuMDMtMy40N2MtMC4wNC0wLjQzLTAuMTQtMC44NS0wLjM3LTEuMjUgICAgICAgIGMtMC4zNC0wLjY0LTAuODktMC45Ni0xLjYyLTFjLTAuNzQtMC4wNS0xLjQsMC4yMy0yLjAyLDAuNTdjLTAuNDMsMC4yNC0wLjYyLDAuNTUtMC41OSwxLjA2ICAgICAgICBDMy44Nyw1OS44MSwzLjg0LDYwLjY0LDMuODUsNjEuNDdDMy44NCw2MS40NywzLjg1LDYxLjQ3LDMuODUsNjEuNDdDMy44NSw2MS40NywzLjg1LDYxLjQ3LDMuODUsNjEuNDd6Ii8+JiN4YTsJCQkJCTwvZz4mI3hhOwkJCQkJPGcgaWQ9Imdyb3VwMzk0OC0xNCIgdHJhbnNmb3JtPSJ0cmFuc2xhdGUoMjAuMzY3OSkiPiYjeGE7CQkJCQkJPHRpdGxlIGlkPSJ0aXRsZTEwMTI1MCI+Zzg3MDwvdGl0bGU+JiN4YTsJCQkJCQk8ZyBpZD0ic2hhcGUzOTQ5LTE1IiB0cmFuc2Zvcm09InRyYW5zbGF0ZSgxMS45NzIsLTUuOTYwMDYpIj4mI3hhOwkJCQkJCQk8dGl0bGUgaWQ9InRpdGxlMTAxMjUyIj5wYXRoNjwvdGl0bGU+JiN4YTsJCQkJCQkJPHBhdGggaWQ9InBhdGgxMDEyNTQiIGlua3NjYXBlOmNvbm5lY3Rvci1jdXJ2YXR1cmU9IjAiIHN0eWxlPSJmaWxsOiM0NzQ3NEE7IiBkPSJNNC4wNiw2MS40MmMwLDAuODEsMCwxLjYyLDAsMi40MyAgICAgICAgIGMwLDAuMTcsMC4wMiwwLjM1LDAuMDMsMC41MmMwLjA0LDAuMjYsMC4xOCwwLjQxLDAuNDIsMC40OGMwLjI5LDAuMDksMC42LDAuMTQsMC45MSwwLjE2YzAuMTgsMC4wMiwwLjIxLDAuMDksMC4yMywwLjIyICAgICAgICAgYzAsMC4wNCwwLDAuMDcsMCwwLjEyYy0wLjAyLDAuNjEtMC4wOSwwLjY4LTAuNjcsMC42NGMtMS4zMi0wLjA4LTIuNjMtMC4wNy0zLjk0LDBjLTAuMTgsMC0wLjM1LDAuMDItMC41MiwwLjAyICAgICAgICAgYy0wLjExLDAtMC4xNC0wLjA1LTAuMTYtMC4xMmMtMC4wNS0wLjI0LTAuMDUtMC40OCwwLTAuNzNjMC4wMi0wLjEsMC4wOS0wLjEzLDAuMTktMC4xNWMwLjI0LTAuMDQsMC40Ny0wLjA5LDAuNzEtMC4xNCAgICAgICAgIGMwLjQzLTAuMSwwLjU5LTAuMjgsMC42MS0wLjcyYzAuMDMtMC40OSwwLjA1LTAuOTcsMC4wNS0xLjQ2YzAtMS40MSwwLTIuODMsMC00LjI1YzAtMC4zMS0wLjEyLTAuNS0wLjQtMC42NCAgICAgICAgIGMtMC4zMS0wLjE3LTAuNjQtMC4yOS0wLjk4LTAuNDFjLTAuMTEtMC4wMy0wLjIxLTAuMDctMC4zLTAuMTJDMC4wMiw1Ny4xMSwwLDU2Ljg5LDAuMjEsNTYuNzJjMC4xLTAuMDksMC4yLTAuMTIsMC4zNC0wLjE0ICAgICAgICAgYzEuMTEtMC4xNywyLjE4LTAuNDIsMy4yMi0wLjgzYzAuMTItMC4wNSwwLjE3LTAuMDIsMC4yMiwwLjA5YzAuMDUsMC4xLDAuMDcsMC4yMiwwLjA1LDAuMzRjLTAuMDEsMC4yOC0wLjAzLDAuNTQtMC4wNSwwLjgxICAgICAgICAgYzAsMC4xMS0wLjA1LDAuMjQsMC4wNCwwLjNjMC4xLDAuMDcsMC4xNy0wLjA5LDAuMjUtMC4xNGMwLjUyLTAuNDIsMS4wOC0wLjgsMS42OC0xLjA3YzAuNTQtMC4yNCwxLjA5LTAuNDIsMS43MS0wLjM4ICAgICAgICAgYzEuMTYsMC4wNywxLjk5LDAuNjUsMi41MiwxLjY3YzAuMjgsMC41NCwwLjQsMS4xMywwLjQ1LDEuNzNjMC4wNCwwLjQyLDAuMDUsMC44NSwwLjA1LDEuMjhjMCwxLjE5LDAuMDIsMi4zNywwLjAyLDMuNTYgICAgICAgICBjMCwwLjA4LDAsMC4xNywwLDAuMjZjMC4wMiwwLjI5LDAuMTIsMC40OCwwLjQyLDAuNThjMC4zMSwwLjExLDAuNiwwLjE4LDAuOTMsMC4yM2MwLjI3LDAuMDMsMC4yOSwwLjA5LDAuMzEsMC4zNCAgICAgICAgIGMwLDAuMDQsMCwwLjA2LDAsMC4wOWMtMC4wNCwwLjU5LTAuMDcsMC42MS0wLjY2LDAuNTdjLTEuMjktMC4wNy0yLjU5LTAuMDctMy44NywwYy0wLjE3LDAuMDItMC4zNCwwLTAuNTIsMC4wMiAgICAgICAgIGMtMC4xLDAtMC4xNy0wLjAyLTAuMTktMC4xMmMtMC4wMy0wLjIzLTAuMDYtMC40NS0wLjAxLTAuNjljMC4wMS0wLjExLDAuMDctMC4xNiwwLjE5LTAuMThjMC4yNi0wLjAzLDAuNTMtMC4wNywwLjc5LTAuMTMgICAgICAgICBjMC4yOC0wLjA3LDAuNDMtMC4yNSwwLjQ3LTAuNTJjMC4wMi0wLjE2LDAuMDMtMC4zMywwLjAzLTAuNDljMC0xLjIxLDAtMi40Mi0wLjAxLTMuNjFjMC0wLjQxLTAuMDItMC44My0wLjExLTEuMjQgICAgICAgICBjLTAuMi0wLjktMC44OC0xLjUtMS43OS0xLjYxYy0wLjgtMC4wOC0xLjUxLDAuMTItMi4xOCwwLjU2Yy0wLjMzLDAuMi0wLjQ3LDAuNS0wLjQ3LDAuODZjMCwwLjYsMCwxLjIxLDAsMS44MyAgICAgICAgIGMwLDAuMjYsMCwwLjUyLDAsMC43OEM0LjA0LDYxLjQyLDQuMDQsNjEuNDIsNC4wNiw2MS40MkM0LjA2LDYxLjQyLDQuMDYsNjEuNDIsNC4wNiw2MS40MnoiLz4mI3hhOwkJCQkJCTwvZz4mI3hhOwkJCQkJCTxnIGlkPSJzaGFwZTM5NTAtMTciIHRyYW5zZm9ybT0idHJhbnNsYXRlKDUwLjgwNzYsLTYuMTE1NTIpIj4mI3hhOwkJCQkJCQk8dGl0bGUgaWQ9InRpdGxlMTAxMjU3Ij5wYXRoMTI8L3RpdGxlPiYjeGE7CQkJCQkJCTxwYXRoIGlkPSJwYXRoMTAxMjU5IiBpbmtzY2FwZTpjb25uZWN0b3ItY3VydmF0dXJlPSIwIiBzdHlsZT0iZmlsbDojQzJCRkJGOyIgZD0iTTE1LjgyLDU2LjY4ICAgICAgICAgYy0wLjE5LTEuMjYtMC42NS0yLjM4LTEuNDYtMy4zN2MtMC43My0wLjg4LTEuNjEtMS41My0yLjY2LTEuOTdjLTEuMDktMC40NS0yLjI1LTAuNTgtMy40Mi0wLjYyICAgICAgICAgYy0wLjQ5LTAuMDItNy4wOSwwLjA5LTcuNTcsMGMtMC4xMi0wLjAyLTAuMjEsMC4wMi0wLjI4LDAuMTJjLTAuMDgsMC4xNC0wLjE3LDAuMjYtMC4yMiwwLjRDMCw1MS43MSwwLDUxLjY3LDAuNSw1MS43NCAgICAgICAgIGMwLjQyLDAuMDcsMC44MSwwLjEsMS4yMSwwLjIzYzAuMzYsMC4xMiwwLjYyLDAuMzIsMC43MSwwLjcyYzAuMDMsMC4xOSwwLjA3LDYuMjcsMC4wNyw5LjExYzAsMC42Ny0wLjAyLDEuMzQtMC4wNywyLjAyICAgICAgICAgYy0wLjAyLDAuMTUtMC4wNCwwLjMxLTAuMDksMC40NWMtMC4wNywwLjItMC4xOSwwLjM4LTAuNCwwLjQ2Yy0wLjIyLDAuMTEtMC40NiwwLjE4LTAuNzIsMC4xOSAgICAgICAgIGMtMC40NywwLjA1LTAuNTQsMC4wNy0wLjY5LDAuNTljLTAuMDIsMC4wNy0wLjA0LDAuMTQtMC4wNSwwLjE5Yy0wLjA0LDAuMjItMC4wMiwwLjI2LDAuMiwwLjI2ICAgICAgICAgYzEuMDQsMC4wMiw0LjMxLDAuMDUsNS4xNywwLjA1YzAuNDgtMC4wMiwxLjI2LDAuMDQsMi4wMi0wLjAzYzAuNDctMC4wNiwwLjkzLTAuMDksMS40LTAuMThjMS41OS0wLjI5LDMuMDEtMC45NSw0LjIyLTIgICAgICAgICBjMC43LTAuNjIsMS4yNC0xLjM1LDEuNjUtMi4xOGMwLjQ5LTAuOTYsMC42OS0yLjAyLDAuNzUtMy4wOUMxNS45Niw1Ny45MywxNS45Myw1Ny4zLDE1LjgyLDU2LjY4TDE1LjgyLDU2LjY4eiBNMTMuMzIsNTkuMTQgICAgICAgICBjLTAuMDcsMS4xLTAuMjksMi4xNy0wLjg2LDMuMTRjLTAuNzMsMS4yNi0xLjc3LDIuMTQtMy4yLDIuNDVjLTAuNjIsMC4xNC0xLjI0LDAuMTktMS44OCwwLjExICAgICAgICAgYy0wLjQ3LTAuMDYtMC45Mi0wLjExLTEuMzUtMC4yNmMtMC43OC0wLjI4LTEuMDUtMC43Ni0xLjA3LTEuNTFjLTAuMDQtMS4wOCwwLTguNy0wLjAyLTEwLjQxYzAtMC42MywwLjI4LTAuNzYsMC43My0wLjc4ICAgICAgICAgYzAuNjctMC4wNSwxLjM2LTAuMDQsMi4wMywwLjAzYzAuNzMsMC4wNywxLjQyLDAuMjUsMi4xLDAuNTJjMC41LDAuMjEsMC45NiwwLjUsMS4zNiwwLjg1YzAuOTMsMC43OSwxLjU1LDEuOCwxLjg4LDIuOTcgICAgICAgICBDMTMuMzIsNTcuMiwxMy4zNyw1OC4xNywxMy4zMiw1OS4xNHoiLz4mI3hhOwkJCQkJCTwvZz4mI3hhOwkJCQkJCTxnIGlkPSJzaGFwZTM5NTEtMTkiIHRyYW5zZm9ybT0idHJhbnNsYXRlKDY3Ljg5MzIsLTYuMDExOSkiPiYjeGE7CQkJCQkJCTx0aXRsZSBpZD0idGl0bGUxMDEyNjIiPnBhdGgxNDwvdGl0bGU+JiN4YTsJCQkJCQkJPHBhdGggaWQ9InBhdGgxMDEyNjQiIGlua3NjYXBlOmNvbm5lY3Rvci1jdXJ2YXR1cmU9IjAiIHN0eWxlPSJmaWxsOiNDMkJGQkY7IiBkPSJNMTMuMDksNjAuNzJjMC0wLjEsMC0wLjE5LTAuMDEtMC4yOSAgICAgICAgIGMtMC4xNi0wLjk1LTAuNjYtMS42Ny0xLjQ0LTIuMjNjLTAuNS0wLjM2LTEuMDctMC42LTEuNjUtMC43OGMtMC4xMS0wLjAzLTAuMTktMC4wNi0wLjMtMC4wOGMwLjAyLTAuMDksMC4wNy0wLjExLDAuMTItMC4xMiAgICAgICAgIGMwLjM1LTAuMTgsMC42OC0wLjM3LDAuOTctMC42MmMwLjU0LTAuNDUsMC45LTEuMDEsMS4wNy0xLjY4YzAuMS0wLjM2LDAuMS0wLjczLDAuMDctMS4xMWMtMC4wOS0wLjk1LTAuNS0xLjY5LTEuMjYtMi4yNCAgICAgICAgIGMtMC44LTAuNTktMS43My0wLjgzLTIuNy0wLjg1Yy0xLjg2LTAuMDMtMy43NCwwLTUuNjEsMGMtMC41NCwwLTEuMDcsMC4wNC0xLjYyLTAuMDVjLTAuMTEtMC4wMi0wLjI1LTAuMDUtMC4zMywwLjA3ICAgICAgICAgYy0wLjE0LDAuMjItMC4yOCwwLjQ1LTAuMzMsMC43MWMtMC4wMiwwLjEyLDAuMDIsMC4xOSwwLjE1LDAuMmMwLjQsMC4wNiwwLjgsMC4xMywxLjIsMC4xOGMwLjQ2LDAuMDcsMC43OSwwLjMzLDAuODMsMC43NCAgICAgICAgIGMwLjAzLDAuMjksMC4wNSwwLjU3LDAuMDUsMC44NmMwLDEuMDgtMC4wMiwyLjE2LTAuMDQsMy4yM2MtMC4wMywyLjEzLTAuMDEsNC4yNy0wLjAxLDYuNGMwLDAuMzgtMC4wNiwwLjc0LTAuMTMsMS4xMiAgICAgICAgIGMtMC4wNSwwLjI2LTAuMTksMC40My0wLjQ0LDAuNTJDMS4zMyw2NC44LDEsNjQuOTEsMC42NCw2NC45MWMtMC4yMywwLTAuMzYsMC4wOC0wLjQ1LDAuMjljLTAuMDcsMC4xNS0wLjE0LDAuMzMtMC4xNiwwLjQ4ICAgICAgICAgQzAsNjUuODksMC4wNSw2NS45NiwwLjI2LDY1LjkyYzAuMTUtMC4wMSw1Ljg2LDAuMTMsNi45MywwLjAyYzAuNjQtMC4wNywxLjI4LTAuMTUsMS45LTAuMzRjMS4wOS0wLjM1LDIuMDktMC44NSwyLjg4LTEuNyAgICAgICAgIGMwLjY2LTAuNjksMS4wNC0xLjUyLDEuMDctMi40OEMxMy4wOSw2MS4xOSwxMy4wOSw2MC45NywxMy4wOSw2MC43MnogTTQuNzIsNTMuNjZjMC4wMy0wLjQ3LDAuMDMtMC45MiwwLjA1LTEuMzggICAgICAgICBjMC0wLjI2LDAuMS0wLjM4LDAuMzYtMC40NGMwLjQyLTAuMDgsMC44My0wLjA1LDEuMjQtMC4wM2MwLjQyLDAuMDMsMC44MiwwLjA5LDEuMjMsMC4yMWMwLjc2LDAuMjIsMS4zNSwwLjY1LDEuNjksMS4zOCAgICAgICAgIGMwLjE2LDAuMzMsMC4yNSwwLjY5LDAuMjUsMS4wNWMwLjAxLDAuNDktMC4wMiwwLjk1LTAuMjEsMS40MmMtMC4yOSwwLjY0LTAuNzYsMS4wNS0xLjQ0LDEuMTcgICAgICAgICBjLTAuNjcsMC4xMy0yLjU5LDAuMDctMi44OCwwLjA3Yy0wLjI2LDAtMC4yOC0wLjAzLTAuMjgtMC4yOWMwLTAuNTUsMC0xLjExLDAtMS42NGwwLDBDNC43LDU0LjcsNC42OCw1NC4xOCw0LjcyLDUzLjY2eiAgICAgICAgICBNMTAuMzMsNjIuOTVjLTAuMjksMC43OC0wLjgzLDEuMzItMS41OSwxLjYxYy0wLjQxLDAuMTYtMC44MywwLjI0LTEuMjgsMC4yMmMtMC41My0wLjAxLTEuMDcsMC0xLjYtMC4xICAgICAgICAgYy0wLjczLTAuMTUtMS4wNi0wLjg1LTEuMTEtMS4zNWMtMC4wOS0wLjg4LTAuMDMtMS43OC0wLjA1LTIuNDNjMC0wLjkyLDAtMS41OSwwLTIuMjhjMC0wLjI4LDAuMDMtMC4zNywwLjMzLTAuMzcgICAgICAgICBjMC41My0wLjAxLDEuMDctMC4wMywxLjYyLDAuMDJjMC4zOCwwLjA0LDAuNzQsMC4wNywxLjExLDAuMTRjMC43NywwLjE3LDEuNDgsMC40NywyLjA0LDEuMDdjMC40NCwwLjQ4LDAuNjksMS4wNywwLjc0LDEuNzEgICAgICAgICBDMTAuNTksNjEuOCwxMC41Niw2Mi4zOCwxMC4zMyw2Mi45NUMxMC4zMyw2Mi45NSwxMC4zMyw2Mi45NSwxMC4zMyw2Mi45NXoiLz4mI3hhOwkJCQkJCTwvZz4mI3hhOwkJCQkJCTxnIGlkPSJzaGFwZTM5NTItMjEiIHRyYW5zZm9ybT0idHJhbnNsYXRlKDI1LjU4NTIpIj4mI3hhOwkJCQkJCQk8dGl0bGUgaWQ9InRpdGxlMTAxMjY3Ij5wYXRoMTY8L3RpdGxlPiYjeGE7CQkJCQkJCTxwYXRoIGlkPSJwYXRoMTAxMjY5IiBpbmtzY2FwZTpjb25uZWN0b3ItY3VydmF0dXJlPSIwIiBzdHlsZT0iZmlsbDojNDc0NzRBOyIgZD0iTTguNzQsNTEuNzJjMC4xNiwwLjAyLDAuMzEsMC4wNiwwLjQ1LDAuMDcgICAgICAgICBjMC40OCwwLjAyLDEuMDUtMC4xNSwxLjIzLTAuODNjMC4wOC0wLjMyLDAuMS0wLjY0LDAtMC45OGMtMC4xMSwwLTAuMTYsMC4wOS0wLjIxLDAuMTJjLTAuMjYsMC4yMS0wLjU1LDAuMzMtMC44NiwwLjM2ICAgICAgICAgQzguNzIsNTAuNTMsOC4xLDUwLjUsNy41LDUwLjI3Yy0wLjI4LTAuMS0wLjU2LTAuMi0wLjg1LTAuMjljLTAuNTktMC4xOS0xLjIxLTAuMjgtMS44My0wLjI0ICAgICAgICAgYy0wLjg4LDAuMDctMS43MSwwLjM2LTIuNDksMC43N2MtMC44MywwLjQ1LTEuNDEsMS4xMy0xLjY5LDIuMDRjLTAuMTYsMC41NC0wLjE3LDEuMDktMC4xLDEuNjRjMC4xNywxLjI3LDAuODIsMi4xNSwyLDIuNjEgICAgICAgICBjMC4wNywwLjAyLDAuMTIsMC4wNSwwLjE5LDAuMDdjMC4xNiwwLjA5LDAuMTcsMC4xNywwLjAzLDAuM2MtMC4xMywwLjEtMC4yNywwLjItMC40MywwLjI5Yy0wLjM0LDAuMjEtMC42OSwwLjQxLTEuMDMsMC42NCAgICAgICAgIGMtMC4yNiwwLjE1LTAuMywwLjI4LTAuMjEsMC41NWMwLjEsMC4zMywwLjI5LDAuNjEsMC41NSwwLjgzYzAuMjQsMC4yMSwwLjUsMC4zNiwwLjgsMC40OGMwLjE5LDAuMDksMC4xOSwwLjE0LDAuMDEsMC4yOCAgICAgICAgIGMtMC4zMywwLjI0LTAuNjUsMC40Ny0wLjk4LDAuNzFjLTAuMzMsMC4yNC0wLjY2LDAuNTItMC45MywwLjgzYy0wLjQsMC40NS0wLjU0LDAuOTctMC40MiwxLjU1ICAgICAgICAgYzAuMTQsMC42MywwLjQzLDEuMTMsMC45LDEuNTZDMS40Nyw2NS4zLDIsNjUuNiwyLjYxLDY1Ljc1YzAuOTcsMC4yOCwxLjk3LDAuMywyLjk1LDAuMTFjMS40Mi0wLjI2LDIuNjUtMC45LDMuNjMtMS45NiAgICAgICAgIGMwLjY3LTAuNywxLjA3LTEuNTMsMS4xMS0yLjU0YzAuMDUtMS4yMS0wLjY5LTIuMjItMS44Ny0yLjUyYy0wLjMxLTAuMDctMC42Mi0wLjEyLTAuOTMtMC4xN2MtMC45NS0wLjEyLTEuOS0wLjE3LTIuODUtMC4yNCAgICAgICAgIGMtMC4zMS0wLjAyLTAuNjItMC4wNy0wLjg4LTAuMjNjLTAuMzMtMC4yLTAuNDItMC42LTAuMjEtMC44NmMwLjE1LTAuMTksMC4zNC0wLjMxLDAuNTktMC4zM2MwLjE5LTAuMDIsMC4zNi0wLjAzLDAuNTUtMC4wNSAgICAgICAgIGMxLjEyLTAuMTIsMi4wOS0wLjU3LDIuOTItMS4zM2MwLjQzLTAuNCwwLjcyLTAuOSwwLjg4LTEuNDdjMC4yMS0wLjc0LDAuMjEtMS41LDAuMDMtMi4yNkM4LjQ4LDUxLjcxLDguNSw1MS42OSw4Ljc0LDUxLjcyeiAgICAgICAgICBNNC41MSw2MC4zM2MwLjEsMC4wMSwwLjIxLDAsMC4zMSwwQzUuNTUsNjAuMzYsNi4yOSw2MC40MSw3LDYwLjZjMC4yNCwwLjA3LDAuNDUsMC4xNiwwLjY3LDAuMjYgICAgICAgICBjMC42OSwwLjM4LDAuOTUsMS4wNCwwLjg2LDEuNzVDOC40Myw2My4zOSw4LDYzLjk0LDcuMzIsNjQuM2MtMC40NCwwLjI0LTAuOTUsMC4zNi0xLjQ2LDAuNDJjLTAuMTksMC4wMS0wLjM3LDAtMC41NiwwICAgICAgICAgYy0wLjYsMC4wMS0xLjE5LTAuMDYtMS43Ni0wLjNjLTAuNC0wLjE1LTAuNzItMC4zOC0xLjAyLTAuNjljLTAuNi0wLjYtMC45LTEuNzEsMC4wMi0yLjYxQzMuMDksNjAuNiwzLjcxLDYwLjI2LDQuNTEsNjAuMzN6ICAgICAgICAgIE02LjQ4LDU0Ljk0Yy0wLjM2LDAuOTEtMS4xNiwxLjE5LTEuOTUsMS4wN2MtMC43My0wLjExLTEuMjYtMC41LTEuNjEtMS4xNmMtMC40NS0wLjg4LTAuNTctMS44LTAuMzEtMi43NSAgICAgICAgIGMwLjE5LTAuNywwLjYyLTEuMjQsMS4zOC0xLjM2YzAuOTctMC4xNywxLjg4LDAuMTcsMi4zOCwxLjE0YzAuMjUsMC40NywwLjM3LDEuMDQsMC4zNywxLjg1ICAgICAgICAgQzYuNzIsNTQuMDYsNi42NSw1NC41MSw2LjQ4LDU0Ljk0eiIvPiYjeGE7CQkJCQkJPC9nPiYjeGE7CQkJCQkJPGcgaWQ9InNoYXBlMzk1My0yMyIgdHJhbnNmb3JtPSJ0cmFuc2xhdGUoMCwtNS43NTI3NykiPiYjeGE7CQkJCQkJCTx0aXRsZSBpZD0idGl0bGUxMDEyNzIiPnBhdGgxODwvdGl0bGU+JiN4YTsJCQkJCQkJPHBhdGggaWQ9InBhdGgxMDEyNzQiIGlua3NjYXBlOmNvbm5lY3Rvci1jdXJ2YXR1cmU9IjAiIHN0eWxlPSJmaWxsOiM0NzQ3NEE7IiBkPSJNMTAuMyw1OS41MmMtMC4xNi0wLjk0LTAuNS0xLjc4LTEuMTQtMi40OSAgICAgICAgIEM4LjIxLDU1Ljk3LDcsNTUuNTIsNS42Myw1NS41MWMtMS4xOS0wLjAyLTIuMzEsMC4zMy0zLjMyLDAuOTVjLTEsMC42Mi0xLjY5LDEuNS0yLjAyLDIuNjRjLTAuMjksMS0wLjI3LDIuMDItMC4wNSwzLjA0ICAgICAgICAgYzAuNjEsMi43MywyLjcxLDMuOTEsNS4yNCwzLjczYzAuNzQtMC4wNSwxLjQ1LTAuMjksMi4xMi0wLjYyYzEtMC40NywxLjczLTEuMjEsMi4yMy0yLjE5YzAuNC0wLjgyLDAuNTctMS42OCwwLjU1LTIuNjYgICAgICAgICBDMTAuMzcsNjAuMTUsMTAuMzUsNTkuODMsMTAuMyw1OS41MnogTTcuODQsNjMuMzVjLTAuMzEsMC44My0wLjksMS4zMy0xLjc4LDEuNDVjLTAuNzYsMC4xMS0xLjQ2LTAuMDgtMi4xLTAuNTMgICAgICAgICBjLTAuNDctMC4zNS0wLjgzLTAuNzgtMS4wOS0xLjNDMi4xNiw2MS41MiwyLjA0LDYwLDIuNCw1OC40NGMwLjEyLTAuNDgsMC4zNi0wLjkxLDAuNzMtMS4yNmMwLjY0LTAuNTgsMS4zOC0wLjcyLDIuMjEtMC41NSAgICAgICAgIGMwLjc5LDAuMTcsMS40LDAuNiwxLjg4LDEuMjZzMC43MywxLjQyLDAuODYsMi4yMWMwLjA3LDAuNCwwLjA3LDAuODEsMC4wOSwxLjA3QzguMTcsNjIsOC4xLDYyLjY4LDcuODQsNjMuMzV6Ii8+JiN4YTsJCQkJCQk8L2c+JiN4YTsJCQkJCQk8ZyBpZD0ic2hhcGUzOTU0LTI1IiB0cmFuc2Zvcm09InRyYW5zbGF0ZSgzNy42MjYzLC01LjczNTUpIj4mI3hhOwkJCQkJCQk8dGl0bGUgaWQ9InRpdGxlMTAxMjc3Ij5wYXRoMjA8L3RpdGxlPiYjeGE7CQkJCQkJCTxwYXRoIGlkPSJwYXRoMTAxMjc5IiBpbmtzY2FwZTpjb25uZWN0b3ItY3VydmF0dXJlPSIwIiBzdHlsZT0iZmlsbDojNDc0NzRBOyIgZD0iTTEwLjQyLDU5LjY0ICAgICAgICAgYy0wLjE0LTEuMDEtMC41LTEuOTItMS4yMS0yLjY4Yy0wLjkzLTEuMDItMi4xNC0xLjQ1LTMuNDktMS40N2MtMS4xNi0wLjAyLTIuMjMsMC4zMS0zLjIyLDAuODggICAgICAgICBjLTEuMSwwLjY2LTEuODYsMS41OS0yLjE1LDIuODVjLTAuMzUsMS40Mi0wLjIxLDIuOCwwLjQxLDQuMTFjMC41NywxLjIxLDEuNTQsMS45OSwyLjgyLDIuMzRjMS40MSwwLjM4LDIuNzYsMC4yLDQuMDctMC40NCAgICAgICAgIGMxLjE0LTAuNTUsMS45Ni0xLjQxLDIuNDItMi41OWMwLjI4LTAuNjksMC4zOC0xLjQzLDAuNC0yLjNDMTAuNDksNjAuMTksMTAuNDUsNTkuOTEsMTAuNDIsNTkuNjR6IE04LjAzLDYzLjExICAgICAgICAgYy0wLjI3LDAuOTMtMC44NiwxLjU0LTEuODUsMS42N2MtMC43MiwwLjExLTEuNDEtMC4wNi0yLjAzLTAuNDhjLTAuNTQtMC4zNi0wLjkyLTAuODUtMS4yLTEuNDIgICAgICAgICBjLTAuMzEtMC42LTAuNDgtMS4yNC0wLjU1LTEuOWMtMC4xLTAuODEtMC4xLTEuNiwwLjA5LTIuNDFjMC4wMy0wLjE2LDAuMDgtMC4zMiwwLjE1LTAuNDdjMC40OS0xLjIxLDEuNTYtMS43NiwyLjgyLTEuNDkgICAgICAgICBjMC44NSwwLjE5LDEuNDgsMC42NiwxLjk3LDEuMzdjMC40NiwwLjY5LDAuNjksMS40NSwwLjc5LDIuMjZjMC4wNiwwLjMzLDAuMDcsMC42NywwLjA2LDAuOTcgICAgICAgICBDOC4yOCw2MS44OCw4LjIyLDYyLjUsOC4wMyw2My4xMXoiLz4mI3hhOwkJCQkJCTwvZz4mI3hhOwkJCQkJPC9nPiYjeGE7CQkJCTwvZz4mI3hhOwkJCTwvZz4mI3hhOwkJPC9nPiYjeGE7CTwvZz4mI3hhOzwvZz4mI3hhOzwvc3ZnPg==;" vertex="1" parent="1">
          <mxGeometry x="240" y="80" width="101" height="64" as="geometry" />
        </mxCell>
        <mxCell id="sT2DDZtejXuOlO23xN1f-2" value="" style="shape=image;verticalLabelPosition=bottom;labelBackgroundColor=#ffffff;verticalAlign=top;aspect=fixed;imageAspect=0;image=data:image/svg+xml,PHN2ZyB4bWxuczpjYz0iaHR0cDovL2NyZWF0aXZlY29tbW9ucy5vcmcvbnMjIiB4bWxuczpkYz0iaHR0cDovL3B1cmwub3JnL2RjL2VsZW1lbnRzLzEuMS8iIHhtbG5zOmlua3NjYXBlPSJodHRwOi8vd3d3Lmlua3NjYXBlLm9yZy9uYW1lc3BhY2VzL2lua3NjYXBlIiB4bWxuczpyZGY9Imh0dHA6Ly93d3cudzMub3JnLzE5OTkvMDIvMjItcmRmLXN5bnRheC1ucyMiIHhtbG5zOnNvZGlwb2RpPSJodHRwOi8vc29kaXBvZGkuc291cmNlZm9yZ2UubmV0L0RURC9zb2RpcG9kaS0wLmR0ZCIgeG1sbnM6c3ZnPSJodHRwOi8vd3d3LnczLm9yZy8yMDAwL3N2ZyIgeG1sbnM9Imh0dHA6Ly93d3cudzMub3JnLzIwMDAvc3ZnIiB4bWxuczp4bGluaz0iaHR0cDovL3d3dy53My5vcmcvMTk5OS94bGluayIgdmVyc2lvbj0iMS4xIiBpZD0ic3ZnOTkwNTgiIGlua3NjYXBlOnZlcnNpb249IjAuOTIuMyAoMjQwNTU0NiwgMjAxOC0wMy0xMSkiIHNvZGlwb2RpOmRvY25hbWU9ImRhdGFiYXNlcy5zdmciIHg9IjBweCIgeT0iMHB4IiB2aWV3Qm94PSIwIDAgNTIuODggNjUuODciIHN0eWxlPSJlbmFibGUtYmFja2dyb3VuZDpuZXcgMCAwIDUyLjg4IDY1Ljg3OyIgeG1sOnNwYWNlPSJwcmVzZXJ2ZSI+JiN4YTs8c29kaXBvZGk6bmFtZWR2aWV3IGJvcmRlcmNvbG9yPSIjNjY2NjY2IiBib3JkZXJvcGFjaXR5PSIxIiBmaXQtbWFyZ2luLWJvdHRvbT0iMCIgZml0LW1hcmdpbi1sZWZ0PSIwIiBmaXQtbWFyZ2luLXJpZ2h0PSIwIiBmaXQtbWFyZ2luLXRvcD0iMCIgZ3JpZHRvbGVyYW5jZT0iMTAiIGd1aWRldG9sZXJhbmNlPSIxMCIgaWQ9Im5hbWVkdmlldzk5MDYwIiBpbmtzY2FwZTpjdXJyZW50LWxheWVyPSJzdmc5OTA1OCIgaW5rc2NhcGU6Y3g9IjM1LjI1IiBpbmtzY2FwZTpjeT0iNDMuOTE1OCIgaW5rc2NhcGU6cGFnZW9wYWNpdHk9IjAiIGlua3NjYXBlOnBhZ2VzaGFkb3c9IjIiIGlua3NjYXBlOndpbmRvdy1oZWlnaHQ9IjEwMTciIGlua3NjYXBlOndpbmRvdy1tYXhpbWl6ZWQ9IjEiIGlua3NjYXBlOndpbmRvdy13aWR0aD0iMTkyMCIgaW5rc2NhcGU6d2luZG93LXg9Ii04IiBpbmtzY2FwZTp3aW5kb3cteT0iLTgiIGlua3NjYXBlOnpvb209IjkuODcyMjY4NSIgb2JqZWN0dG9sZXJhbmNlPSIxMCIgcGFnZWNvbG9yPSIjZmZmZmZmIiBzaG93Z3JpZD0iZmFsc2UiPiYjeGE7CTwvc29kaXBvZGk6bmFtZWR2aWV3PiYjeGE7PGcgaWQ9Imc5OTA1NiIgdHJhbnNmb3JtPSJ0cmFuc2xhdGUoMCwtMC4wMDMyKSI+JiN4YTsJPHRpdGxlIGlkPSJ0aXRsZTk5MDQxIj5QYWdlLTE8L3RpdGxlPiYjeGE7CTxnIGlkPSJncm91cDM1MTAtMSI+JiN4YTsJCTx0aXRsZSBpZD0idGl0bGU5OTA0MyI+RGF0YWJhc2VzPC90aXRsZT4mI3hhOwkJPGcgaWQ9InNoYXBlMzUxMS0yIiB0cmFuc2Zvcm09InRyYW5zbGF0ZSgxLjAyNDcxLC01Ni40NTY4KSI+JiN4YTsJCQk8dGl0bGUgaWQ9InRpdGxlOTkwNDUiPlNoZWV0LjM1MTE8L3RpdGxlPiYjeGE7CQkJPHBhdGggaWQ9InBhdGg5OTA0NyIgaW5rc2NhcGU6Y29ubmVjdG9yLWN1cnZhdHVyZT0iMCIgc3R5bGU9ImZpbGw6IzNGNTc2NTsiIGQ9Ik0wLDYxLjE2YzAtMi41OSwxMS40My00LjcsMjUuNTItNC43ICAgICBjMTQuMSwwLDI1LjUxLDIuMTEsMjUuNTEsNC43YzAsMi42MS0xMS40MSw0LjcxLTI1LjUxLDQuNzFDMTEuNDMsNjUuODcsMCw2My43NywwLDYxLjE2eiIvPiYjeGE7CQk8L2c+JiN4YTsJCTxnIGlkPSJzaGFwZTM1MTItNCI+JiN4YTsJCQk8dGl0bGUgaWQ9InRpdGxlOTkwNTAiPlNoZWV0LjM1MTI8L3RpdGxlPiYjeGE7CQkJPHBhdGggaWQ9InBhdGg5OTA1MiIgaW5rc2NhcGU6Y29ubmVjdG9yLWN1cnZhdHVyZT0iMCIgc3R5bGU9ImZpbGw6IzNGNTc2NTsiIGQ9Ik01Mi44OCwyMC42NWMwLTE0LjMxLDAtMTQuMzEsMC0xNC4zMSAgICAgYy0zLjUzLDMuMjktMTYuOTYsNC41Ny0yNi40NCw0LjU3Yy05LjQ3LDAtMjIuOS0xLjI4LTI2LjQ0LTQuNTdjMCwxNC4zMSwwLDE0LjMxLDAsMTQuMzFjMCwwLjY0LDAuNTUsMS4yNiwxLjY1LDEuOSAgICAgQzAuNTUsMjMuMDgsMCwyMy43MiwwLDI0LjM1YzAsMTYuMSwwLDE2LjEsMCwxNi4xYzAsMC43NCwwLjU1LDEuMzgsMS42NSwxLjkxQzAuNTUsNDIuOTksMCw0My41MiwwLDQ0LjI2ICAgICBjMCwxNi4xMSwwLDE2LjExLDAsMTYuMTFjMCwyLjk2LDExLjksNS41LDI2LjQ0LDUuNWMxNC42NSwwLDI2LjQ0LTIuNTQsMjYuNDQtNS41YzAtMTYuMTEsMC0xNi4xMSwwLTE2LjExICAgICBjMC0wLjc0LTAuNTYtMS4yNy0xLjU0LTEuOWMwLjk4LTAuNTMsMS41NC0xLjE3LDEuNTQtMS45MWMwLTE2LjEsMC0xNi4xLDAtMTYuMWMwLTAuNjMtMC41Ni0xLjI3LTEuNTQtMS44ICAgICBDNTIuMzIsMjEuOTEsNTIuODgsMjEuMjksNTIuODgsMjAuNjV6IE01MC40NSw0My42M2MwLDEuNjktMTAuNjgsMi45Ny0yNC4wMSwyLjk3Yy0xMy4yMiwwLTIzLjktMS4yOC0yMy45LTIuOTcgICAgIGMwLTIuMDIsMC0yLjAyLDAtMi4wMmMwLDEuNywxMC42OCwyLjk3LDIzLjksMi45N2MxMy4zMywwLDI0LjAxLTEuMjcsMjQuMDEtMi45N1Y0My42M3ogTTUwLjQ1LDIzLjkzICAgICBjMCwxLjY5LTEwLjY4LDMuMDctMjQuMDEsMy4wN2MtMTMuMjIsMC0yMy45LTEuMzgtMjMuOS0zLjA3YzAtMi4wMiwwLTIuMDIsMC0yLjAyYzAsMS43LDEwLjY4LDMuMDgsMjMuOSwzLjA4ICAgICBjMTMuMzMsMCwyNC4wMS0xLjM4LDI0LjAxLTMuMDhMNTAuNDUsMjMuOTN6Ii8+JiN4YTsJCTwvZz4mI3hhOwk8L2c+JiN4YTs8L2c+JiN4YTs8L3N2Zz4=;" vertex="1" parent="1">
          <mxGeometry x="560" y="70" width="53" height="66" as="geometry" />
        </mxCell>
        <mxCell id="sT2DDZtejXuOlO23xN1f-3" value="编辑报告" style="endArrow=open;endSize=12;dashed=1;html=1;rounded=0;" edge="1" parent="1">
          <mxGeometry width="160" relative="1" as="geometry">
            <mxPoint x="120" y="300" as="sourcePoint" />
            <mxPoint x="200" y="300" as="targetPoint" />
          </mxGeometry>
        </mxCell>
      </root>
    </mxGraphModel>
  </diagram>
</mxfile>
